<svg version="1.1" viewBox="0 0 237 80" height="80px" width="237px" xmlns:xlink="http://www.w3.org/1999/xlink" xmlns="http://www.w3.org/2000/svg"><title>header-logo</title><defs><polygon points="2.14854111e-05 0.0459204013 53.9861992 0.0459204013 53.9861992 65.1023411 2.14854111e-05 65.1023411" id="path-1"></polygon></defs><g fill-rule="evenodd" fill="none" stroke-width="1" stroke="none" id="header-logo"><g transform="translate(0.000000, 7.000000)" id="Group-42"><g transform="translate(0.000000, 0.026738)" id="Group-3"><mask fill="white" id="mask-2"></mask><g id="Clip-2"></g><path mask="url(#mask-2)" fill="#F5F640" id="Fill-1" d="M36.051682,60.7952109 C41.2649021,59.7067085 44.867934,57.547941 49.282613,53.0691034 C53.6529605,48.6352416 53.9861992,38.867638 53.9861992,38.867638 L53.9861992,0.0458622742 L2.14854111e-05,0.0458622742 L2.14854111e-05,38.867638 C2.14854111e-05,38.867638 0.333260212,48.6352416 4.70367931,53.0691034 C9.11828674,57.547941 12.7213186,59.7067085 17.9345387,60.7952109 C22.6786607,61.7856966 27.0900454,65.1023557 27.0900454,65.1023557 C27.0900454,65.1023557 31.3075599,61.7856966 36.051682,60.7952109"></path></g><path fill="#0054B4" id="Fill-4" d="M35.8666281,60.2454304 C40.9733523,59.1791616 44.5027607,57.064498 48.8272727,52.6772106 C53.1083841,48.3338817 53.4348191,38.7657994 53.4348191,38.7657994 L53.4348191,0.7370951 L0.551415915,0.7370951 L0.551415915,38.7657994 C0.551415915,38.7657994 0.877850928,48.3338817 5.15896233,52.6772106 C9.48347427,57.064498 13.0128828,59.1791616 18.1196069,60.2454304 C22.7667581,61.2157168 27.0880472,64.4645852 27.0880472,64.4645852 C27.0880472,64.4645852 31.2194053,61.2157168 35.8666281,60.2454304"></path><path fill="#F5F640" id="Fill-6" d="M35.0856836,59.5639702 C39.7156464,58.597244 42.9156119,56.6800672 46.8363414,52.7022125 C50.7178241,48.7644654 51.0137499,40.0896511 51.0137499,40.0896511 L51.0137499,3.10679852 L3.06740769,3.10679852 L3.06740769,40.0896511 C3.06740769,40.0896511 3.36340504,48.7644654 7.24481618,52.7022125 C11.1655456,56.6800672 14.3655111,58.597244 18.995474,59.5639702 C23.2088347,60.443651 27.1266995,63.3892413 27.1266995,63.3892413 C27.1266995,63.3892413 30.8723228,60.443651 35.0856836,59.5639702"></path><path fill="#0054B4" id="Fill-8" d="M34.7189491,51.8883824 C39.1105671,50.9715002 42.1457395,49.7521391 45.8646493,45.9791824 C49.5462462,42.2440809 49.8269889,38.0106122 49.8269889,38.0106122 L49.8269889,4.03038712 L4.34910557,4.03038712 L4.34910557,38.0106122 C4.34910557,38.0106122 4.62991989,42.2440809 8.31144509,45.9791824 C12.0303549,49.7521391 15.0655989,50.9715002 19.4571454,51.8883824 C23.4535751,52.7227967 27.1696918,55.1171969 27.1696918,55.1171969 C27.1696918,55.1171969 30.7225194,52.7227967 34.7189491,51.8883824"></path><path fill="#FFFFFF" id="Fill-10" d="M11.8971382,8.30821401 L11.8971382,40.2888672 C11.8971382,40.4700057 11.9808597,40.6406814 12.123308,40.7499603 L22.8655838,49.2256167 C23.6084777,49.7818929 24.5709525,49.9384001 25.4479154,49.6453669 L31.665292,47.3553049 C31.8753477,47.2779232 32.1100401,47.3595918 32.2290692,47.5513385 L33.3444485,49.2523551 C33.49943,49.5020837 33.8373239,49.5529449 34.057048,49.3596723 C34.057048,49.3596723 38.1143531,46.3406239 39.2407615,45.0073337 C41.5194326,42.3102367 42.3245626,39.2420709 42.5638385,37.1088067 C42.8778836,34.3085342 43.1334883,27.3802209 42.7536979,25.4537439 C42.5764432,24.5545904 41.0447483,22.6603739 41.0447483,22.6603739 L39.009865,20.3143645 C38.9741992,20.2733122 38.9318729,20.238654 38.8847483,20.2119882 L22.8582072,11.0469445 C22.3813743,10.7770168 21.906117,11.4031909 22.2851912,11.8018701 L37.1972841,26.7535383 C37.2896714,26.8461783 37.3405918,26.9731133 37.3382284,27.1048439 L37.3708862,35.1668533 C37.2992682,36.3293951 35.7952178,37.7099135 34.8278013,37.5645231 L24.3046767,23.546594 C24.2051992,23.4147182 24.1797032,23.2401916 24.2371408,23.0847743 L25.7683345,18.9423472 C25.7987005,18.8602427 25.7137615,18.7830063 25.6365573,18.8226054 L18.2364088,22.6206295 C17.9914034,22.746402 17.9023106,23.0562194 18.0423239,23.2959209 L28.3828225,40.8666505 C28.5093716,41.0833918 28.4500003,41.3623292 28.2466767,41.506775 L25.0639711,43.3021755 C24.4373133,43.5820575 23.7107483,43.4980638 23.1622257,43.0823098 L16.8450135,38.1488457 C16.7176767,38.0389855 16.6442682,37.8780461 16.6442682,37.7084603 L16.6442682,12.721368 C16.6442682,12.6083835 16.6834432,12.4989592 16.754918,12.4122772 L20.4065069,7.98473675 C20.4582867,7.92203215 20.4143133,7.82663106 20.333743,7.82663106 L12.3718225,7.82663106 C12.1097005,7.82663106 11.8971382,8.04220991 11.8971382,8.30821401"></path><polygon points="39.0333127 12.2419067 36.2986496 12.1265971 37.5441589 14.600704 36.2986496 17.074811 39.0333127 16.9595014 40.5225382 19.5488453 42.0117637 16.9595014 44.7463552 17.074811 43.5009175 14.600704 44.7463552 12.1265971 42.0117637 12.2419067 40.5225382 9.65249016" fill="#F5F640" id="Fill-12"></polygon><path fill="#1334CD" id="Fill-14" d="M11.2639416,50.4674947 L11.216244,50.5331783 C11.1553687,50.4912541 11.1086021,50.4659689 11.0758727,50.4575404 C11.016931,50.4438079 10.9687321,50.4628445 10.9311326,50.5146503 C10.914374,50.5377558 10.900695,50.5621692 10.8901671,50.5880358 C10.8795676,50.6139023 10.8671061,50.648052 10.8527109,50.6906301 L10.3180822,52.3434012 L11.3530345,51.5871678 L11.5283554,51.0492742 C11.5590796,50.9512574 11.5578621,50.8693709 11.5247745,50.8036873 C11.5054377,50.7643062 11.4646154,50.7204929 11.4023793,50.6721747 L11.4500769,50.6065638 L12.2484032,51.2030204 L12.2007772,51.268704 C12.1251485,51.2139919 12.0691432,51.1819493 12.032618,51.172431 C11.973748,51.1586985 11.9221114,51.1823126 11.8778515,51.243346 C11.8628117,51.2640538 11.8515676,51.2836717 11.844191,51.3021271 C11.8367427,51.3205824 11.8232785,51.3597455 11.8036552,51.4197618 L11.2711751,53.0689 L12.5160398,52.1465684 C12.5867268,52.0946173 12.6451671,52.0449913 12.6914324,51.9978357 C12.7180027,51.9714605 12.7379841,51.9491542 12.7513767,51.9306989 C12.7990743,51.8649426 12.805878,51.7999129 12.7718594,51.7353919 C12.7535968,51.6986991 12.7162122,51.6574289 12.659634,51.6115812 L12.7073316,51.5459702 L13.299183,51.988172 L13.251557,52.0538557 C13.1914695,52.0231936 13.1402626,52.007136 13.0978647,52.0057555 C13.0230955,52.0014686 12.9433846,52.0308955 12.8587321,52.0939633 L11.7806658,52.9157351 L11.3647082,53.2329637 L10.7119814,53.7305316 L10.665931,53.6961639 L10.8296499,53.1937279 L11.2757586,51.845688 L9.73246154,52.9986388 L9.68741379,52.9650705 L9.99737666,52.0659897 L10.3482334,51.0483296 C10.4927586,50.629088 10.5726127,50.365191 10.5877958,50.2567113 C10.6029072,50.1480863 10.5688886,50.0583526 10.4857401,49.9873649 L10.5334377,49.9216813 L11.2639416,50.4674947 Z"></path><path fill="#1334CD" id="Fill-16" d="M11.8443342,54.355732 C11.9779019,54.4274463 12.0742997,54.4585443 12.1334562,54.448808 C12.1925411,54.4391444 12.2671671,54.3630706 12.3573342,54.2205865 L13.3983024,52.5752266 C13.4843873,52.4392092 13.5210557,52.3393759 13.5082361,52.2757994 C13.4954881,52.2122229 13.4280239,52.1354952 13.3057719,52.0457615 L13.349244,51.9771715 L14.2712546,52.5775517 L14.2278541,52.6462143 C14.096435,52.5708671 13.9996074,52.5405683 13.9373714,52.5552454 C13.8750637,52.5699225 13.8008674,52.6452697 13.7147825,52.7813598 L12.6738143,54.4267197 C12.5836472,54.5692038 12.5465491,54.669691 12.5625199,54.728254 C12.5784191,54.7868897 12.6463846,54.8628182 12.7664164,54.9561849 L12.7229443,55.0247748 L11.8009337,54.424322 L11.8443342,54.355732 Z"></path><path fill="#1334CD" id="Fill-18" d="M13.4984745,54.4763603 C13.4549308,54.6790058 13.4406072,54.8525879 13.4554321,54.9968884 C13.4812862,55.2486513 13.5884268,55.4299352 13.7768538,55.5408126 C13.8788379,55.6009015 13.9890581,55.614416 14.1072995,55.5815016 C14.2256125,55.5485871 14.3240873,55.4634309 14.4026523,55.326033 C14.4733393,55.202295 14.4974745,55.0725989 14.4749149,54.9369448 C14.4593021,54.8500448 14.4061615,54.7020387 14.3155647,54.4932898 L14.1580767,54.1301408 C14.1112385,54.0199173 14.0813737,53.9187762 14.0684109,53.8268627 C14.0463525,53.653426 14.0767186,53.4943031 14.159509,53.349494 C14.2692279,53.1577472 14.4141828,53.0296496 14.5944454,52.9653466 C14.774708,52.9010435 14.9534666,52.9210973 15.1307212,53.0254354 C15.2037,53.0683768 15.2793286,53.141399 15.3576072,53.2445746 C15.4358857,53.3476775 15.4823658,53.4034795 15.4969759,53.4121986 C15.5365806,53.4354494 15.5703127,53.4403902 15.5981721,53.4270936 C15.6260316,53.4136517 15.6557531,53.3890204 15.6874798,53.3530542 L15.7531536,53.3917088 L15.3607584,54.242544 L15.2841271,54.1974229 C15.3713578,53.9229904 15.3850369,53.7034879 15.325021,53.5392063 C15.265005,53.3748519 15.1787053,53.2596149 15.0661218,53.1933501 C14.9785329,53.1417623 14.88457,53.1274485 14.784448,53.150336 C14.6842544,53.1732236 14.6029679,53.2391978 14.5407318,53.3481134 C14.4847981,53.4458396 14.4620236,53.5440744 14.4724082,53.6427451 C14.4819334,53.7426511 14.517456,53.8620296 14.578761,54.0006627 L14.742265,54.3722401 C14.8446788,54.6046032 14.901257,54.7957686 14.9119281,54.9460272 C14.9208804,55.0967943 14.8828512,55.2464716 14.7979838,55.3949863 C14.6840395,55.5942895 14.5254772,55.7234043 14.3223684,55.7825486 C14.1193313,55.8416203 13.9192305,55.813138 13.7222093,55.6972471 C13.6230899,55.6389021 13.5324215,55.5557077 13.4499891,55.4476639 C13.3674851,55.3396202 13.3184984,55.2809845 13.3028857,55.2717568 C13.2652862,55.2497412 13.2321987,55.2484333 13.2036231,55.2680512 C13.1749759,55.2875238 13.1497663,55.3115739 13.1279228,55.3400562 L13.0575939,55.2986406 L13.4249944,54.4331282 L13.4984745,54.4763603 Z"></path><path fill="#1334CD" id="Fill-20" d="M15.548856,56.4214017 C15.5653997,56.4551881 15.6153175,56.4928254 15.6986093,56.5343862 C15.9582963,56.663719 16.2015111,56.7091308 16.4283255,56.6706216 C16.776604,56.6112593 17.0606411,56.3547735 17.2802936,55.9010189 C17.4763122,55.4962364 17.5177074,55.1387548 17.4046225,54.8287194 C17.3075085,54.5633693 17.1090549,54.3560009 16.809405,54.2067596 C16.734779,54.1694856 16.6794899,54.1539366 16.6436809,54.1600399 C16.6078003,54.1660706 16.5739966,54.2018914 16.5423414,54.267357 L15.5706995,56.2744128 C15.5396172,56.3386433 15.5323122,56.3876153 15.548856,56.4214017 L15.548856,56.4214017 Z M14.8290947,56.1918723 C14.9576491,56.2369208 15.0491053,56.2504354 15.103535,56.2323433 C15.1579647,56.2142513 15.2210602,56.1312022 15.2927499,55.9830508 L16.1423546,54.2281213 C16.2119674,54.0843294 16.2388958,53.9829703 16.2230682,53.9241166 C16.2072406,53.8651902 16.1402061,53.7999426 16.0218215,53.7282283 L16.0572724,53.6549882 L16.9530708,54.1013315 C17.2549408,54.2518081 17.4816119,54.4380327 17.6332273,54.6602962 C17.9071663,55.0597746 17.9119647,55.5324205 17.6477658,56.0781612 C17.552657,56.2746308 17.4283281,56.4446525 17.2749939,56.5882264 C17.1215164,56.7317277 16.9471265,56.8305438 16.7517525,56.8846019 C16.6278533,56.9185336 16.5098268,56.9321935 16.3975297,56.9255815 C16.1916279,56.915482 15.9647419,56.8487085 15.7170151,56.7252611 L14.7936438,56.2651125 L14.8290947,56.1918723 Z"></path><path fill="#1334CD" id="Fill-22" d="M18.1483615,57.3807966 C18.212961,57.6429498 18.349465,57.814788 18.5577302,57.8963112 C18.7614836,57.9759453 18.9739027,57.9436848 19.1949159,57.7993843 C19.4160008,57.6550838 19.6105154,57.3619779 19.7784597,56.9201394 C19.9484093,56.4729241 19.997969,56.1212552 19.9272103,55.8651327 C19.8564517,55.6089376 19.7208788,55.4416769 19.5204915,55.3632053 C19.3133005,55.2821907 19.0987329,55.3167036 18.8767886,55.4668168 C18.6548443,55.61693 18.4616905,55.9081468 18.2973271,56.3407576 C18.1333934,56.7719153 18.0837621,57.1186434 18.1483615,57.3807966 M18.65377,55.2702746 C18.9581467,55.1118056 19.2655313,55.0933503 19.5759239,55.2146906 C19.8874623,55.3365395 20.1033191,55.5605468 20.2235658,55.8867124 C20.3541255,56.2399071 20.336221,56.6353893 20.1697806,57.0732316 C20.0008337,57.5177585 19.7471626,57.8248876 19.408839,57.9946187 C19.1058231,58.1459671 18.8030936,58.1624606 18.5005074,58.0440993 C18.1766507,57.9174549 17.9573562,57.6820402 17.8426241,57.3382185 C17.7265313,56.9876395 17.7476586,56.604146 17.9059345,56.1875927 C18.0723032,55.7498231 18.3216056,55.4440019 18.65377,55.2702746"></path><path fill="#1334CD" id="Fill-24" d="M20.0415557,58.5001282 C20.1943886,58.5206906 20.2995955,58.5055776 20.357248,58.4549344 C20.4148289,58.4042185 20.4719085,58.2666752 20.5285584,58.0423047 L20.9649987,56.3139683 C21.0038156,56.1602221 21.0086141,56.0548668 20.9795371,55.9979022 C20.950317,55.9407924 20.8644469,55.8893499 20.7217838,55.8434295 L20.7416936,55.7644493 L21.4488501,55.9482036 L21.7371127,58.2831688 L23.0762984,56.3711508 L23.7891844,56.5564309 L23.7692745,56.6354838 C23.6333435,56.612015 23.5403117,56.6184089 23.4900358,56.654811 C23.4397599,56.6911405 23.3956432,56.7848704 23.3574708,56.9357829 L22.8796353,58.8282556 C22.8404602,58.9833096 22.8346592,59.0877204 22.8621605,59.1413426 C22.8896618,59.1949649 22.9682268,59.2460441 23.0978554,59.2945075 L23.077874,59.3734877 L22.0742905,59.1126424 L22.0942719,59.0336622 C22.2425212,59.0574216 22.3404947,59.0500104 22.3881923,59.0115012 C22.4358899,58.9730647 22.4824416,58.8637131 22.5279191,58.6836645 L23.0104814,56.7725184 L21.4797175,58.958097 L21.4306592,58.9453817 L21.114752,56.3860459 L20.6861897,58.0832843 C20.6274629,58.315938 20.6177944,58.4749882 20.6571844,58.5605077 C20.6829668,58.6159464 20.7585955,58.6687694 20.8839987,58.719122 L20.8640889,58.7981022 L20.0216459,58.579181 L20.0415557,58.5001282 Z"></path><path fill="#1334CD" id="Fill-26" d="M25.9412634,58.5446898 L25.6010061,57.3072368 L25.0926613,58.484601 L25.9412634,58.5446898 Z M24.2729928,59.5581357 L24.278579,59.4768304 C24.3744756,59.4707997 24.4486003,59.4334531 24.5010963,59.3647178 C24.5535207,59.2959825 24.6484862,59.1043811 24.7859928,58.7899862 L25.7034915,56.6927608 L25.7771149,56.6979922 L26.5264544,59.2487542 C26.5764438,59.4177587 26.6184119,59.5230414 26.6524305,59.564675 C26.6863775,59.6062358 26.7461785,59.6372612 26.8318337,59.657533 L26.8261759,59.7389836 L25.8869053,59.6724281 L25.8924915,59.5910501 C26.0012077,59.5873445 26.0717515,59.5784075 26.1041228,59.5643117 C26.1364942,59.5502159 26.1548284,59.511198 26.1592687,59.4472582 C26.1607011,59.4259692 26.1572634,59.3878233 26.1489557,59.3331112 C26.140648,59.2782537 26.1277568,59.2201993 26.1102103,59.1590205 L25.9913244,58.726773 L25.017892,58.6578924 C24.9022289,58.9379196 24.8329027,59.1089586 24.8099133,59.1707913 C24.7869239,59.2327693 24.7741759,59.2821046 24.7715976,59.3190154 C24.7665844,59.3929094 24.788213,59.4458051 24.83677,59.4778476 C24.866778,59.4970296 24.924717,59.5140317 25.0105154,59.5286362 L25.0049292,59.6100141 L24.2729928,59.5581357 Z"></path><path fill="#1334CD" id="Fill-28" d="M27.1983605,59.6557165 C27.3494745,59.6246912 27.4441536,59.5757191 27.482326,59.508873 C27.52057,59.4418815 27.5305249,59.2930035 27.5121907,59.0620936 L27.359143,57.1319109 L27.303066,57.0655734 C27.2430501,56.9944404 27.1933472,56.951499 27.1541005,56.9367492 C27.1148538,56.9220721 27.0572729,56.9164047 26.9813578,56.9196744 L26.9748406,56.8384418 L27.6046496,56.7869993 L29.1956443,58.766808 L29.0801244,57.3109424 C29.0611456,57.0714587 29.0187477,56.9180032 28.9530024,56.8507211 C28.9096019,56.8071985 28.8194347,56.783875 28.6825727,56.7808233 L28.6761271,56.6994454 L29.5429918,56.6287483 L29.5494374,56.7099809 C29.4102119,56.7386085 29.3197584,56.7869266 29.278005,56.8548627 C29.2361801,56.922944 29.2244347,57.0717494 29.2426257,57.3013514 L29.4255382,59.6073257 L29.3624427,59.6124845 L27.5391191,57.3434935 L27.6744056,59.0489424 C27.693456,59.2883533 27.7352093,59.4419541 27.7998804,59.5098175 C27.8420634,59.5537035 27.9305117,59.5786981 28.0652252,59.5848741 L28.0716708,59.6662521 L27.2048061,59.7369491 L27.1983605,59.6557165 Z"></path><path fill="#1334CD" id="Fill-30" d="M30.8200345,59.1142481 C30.853695,59.1303058 30.9158594,59.1281986 31.0065279,59.1081448 C31.2892042,59.0456582 31.507496,58.9277328 31.6614748,58.7543688 C31.8978143,58.4880741 31.9629151,58.1079956 31.8567056,57.6141333 C31.7618833,57.1734573 31.5751751,56.8674181 31.2965809,56.6960885 C31.0578064,56.5496083 30.7752732,56.5124069 30.4491247,56.5847025 C30.3679098,56.6026492 30.3150557,56.6253188 30.2907056,56.6527112 C30.2663554,56.6801036 30.2619151,56.7294389 30.2772414,56.8007173 L30.7469841,58.9853513 C30.7620239,59.0552491 30.786374,59.0982632 30.8200345,59.1142481 L30.8200345,59.1142481 Z M30.1157427,59.3887533 C30.2440822,59.3429056 30.3239363,59.29575 30.3555199,59.2472139 C30.3870318,59.1987504 30.3854562,59.0939037 30.3507215,58.932601 L29.939992,57.0224721 C29.9063316,56.8658923 29.8652228,56.7695466 29.8167374,56.7333625 C29.768252,56.6972511 29.6757215,56.6884593 29.5390743,56.7069874 L29.5219576,56.6272806 L30.4970371,56.4115564 C30.8255491,56.3388249 31.117321,56.3415859 31.3722095,56.4198395 C31.8316393,56.5598532 32.1252732,56.9268531 32.2529682,57.5209119 C32.2990186,57.7348196 32.3058939,57.9463296 32.273809,58.1555144 C32.2417241,58.364772 32.1657374,58.5521592 32.0459204,58.7177487 C31.9697188,58.8224502 31.8856393,58.9077517 31.7936817,58.9735079 C31.6262387,59.0955022 31.4076605,59.1863257 31.1379469,59.2459787 L30.1328594,59.4684601 L30.1157427,59.3887533 Z"></path><path fill="#1334CD" id="Fill-32" d="M32.8223316,55.8110382 L34.7843793,55.0697725 L35.0598939,55.7626474 L34.9768886,55.794036 C34.855496,55.5894287 34.7512918,55.4658359 34.6642759,55.4231852 C34.5771883,55.3804618 34.4330928,55.3971733 34.232061,55.4731018 L34.0389072,55.546124 L34.8125968,57.6537396 C34.8708223,57.8124992 34.9278302,57.9029595 34.9835491,57.9251931 C35.0392679,57.9473541 35.1399629,57.9378358 35.2855623,57.8964202 L35.3136366,57.9728573 L34.3021034,58.355043 L34.2741008,58.2786058 C34.4159761,58.2097979 34.4969761,58.1465847 34.5169576,58.0888935 C34.536939,58.0312024 34.5143077,57.9135677 34.4492069,57.7360621 L33.6932785,55.6766193 L33.4984058,55.7502227 C33.3063979,55.8228089 33.1877268,55.9050588 33.1423926,55.9970449 C33.0969867,56.0889583 33.0974164,56.2521501 33.1436101,56.4866203 L33.0588859,56.5185902 L32.8223316,55.8110382 Z"></path><path fill="#1334CD" id="Fill-34" d="M36.5258077,55.6819016 C36.6630279,55.510136 36.6758475,55.3048747 36.5644098,55.0660451 C36.4571976,54.8363704 36.3044363,54.7177185 36.1062692,54.7103073 C36.0002029,54.7059477 35.8768767,54.7375543 35.7363621,54.8051271 C35.6416114,54.8506842 35.5873249,54.8865777 35.5736459,54.9129528 C35.5599668,54.9392554 35.5669138,54.9821241 35.5947016,55.0414864 L36.0511233,56.0192567 C36.2870332,55.8932662 36.4452374,55.7807903 36.5258077,55.6819016 L36.5258077,55.6819016 Z M36.0249111,57.6086693 C36.146805,57.5327408 36.2130517,57.4645868 36.2236512,57.4044253 C36.2342507,57.3441911 36.2010915,57.2317151 36.1241737,57.0669975 L35.3209775,55.3466536 C35.255805,55.2070033 35.1953594,55.1240268 35.1397838,55.0977243 C35.0841366,55.0714218 34.9931817,55.0814487 34.8667759,55.1279504 L34.8323992,55.0542017 L35.7589218,54.6090208 C35.9516459,54.5163808 36.1259642,54.4682806 36.2815902,54.464575 C36.5767997,54.4571638 36.7931578,54.6005197 36.9305928,54.8949334 C37.0228369,55.0924929 37.0394523,55.2702165 36.9805106,55.4281768 C36.921569,55.5862099 36.8067653,55.7266594 36.6361711,55.8497436 L37.7963833,56.5265609 C37.8675716,56.5676858 37.9310968,56.5921718 37.9866724,56.600019 C38.0423912,56.6077935 38.1052003,56.599583 38.1752427,56.575315 L38.209691,56.6490637 L37.6706936,56.9080199 L36.2622533,56.0863935 L36.1199483,56.1666815 L36.4854867,56.9495081 C36.5540252,57.096497 36.6162613,57.1805633 36.672195,57.2017797 C36.7281286,57.2229961 36.8223064,57.2096995 36.9546565,57.1618173 L36.9891048,57.2355661 L36.0593594,57.6822727 L36.0249111,57.6086693 Z"></path><path fill="#1334CD" id="Fill-36" d="M37.9044907,53.4825541 L37.9447401,53.5531786 C37.8273581,53.6354284 37.7614695,53.7067067 37.7472891,53.7671589 C37.7329655,53.8276111 37.7658382,53.9278077 37.8456923,54.0677486 L38.5401008,55.2841306 C38.6539019,55.4834339 38.7654828,55.6253367 38.8750584,55.7097663 C39.0764483,55.8626405 39.2966021,55.8688892 39.5354483,55.7285122 C39.7972838,55.5746934 39.9136631,55.3673977 39.8845862,55.1066977 C39.8682573,54.960944 39.7907666,54.7667269 39.6522573,54.5239736 L39.0872626,53.5341419 C38.9692361,53.3273548 38.8743422,53.2100107 38.8025809,53.1818191 C38.7308196,53.1537728 38.6326313,53.1672147 38.5080159,53.2222174 L38.467695,53.151593 L39.2092997,52.7159305 L39.2496207,52.7864822 C39.1346737,52.875562 39.0739416,52.9587564 39.0672812,53.0362107 C39.0606923,53.1137378 39.1142626,53.2520802 39.227992,53.4513835 L39.79313,54.4412152 C39.9429549,54.7038043 40.0260318,54.9285382 40.0422891,55.1157801 C40.071939,55.4604737 39.911443,55.7357055 39.5610159,55.9416207 C39.2147427,56.1451382 38.9027029,56.149861 38.6248966,55.9560071 C38.4750716,55.8522503 38.3330531,55.6827372 38.1987692,55.4474678 L37.5202599,54.2589141 C37.441122,54.1202083 37.3723687,54.0419547 37.3141432,54.0240806 C37.2559178,54.0062792 37.1631008,54.0272776 37.0357639,54.0872212 L36.9955146,54.0167421 L37.9044907,53.4825541 Z"></path><path fill="#1334CD" id="Fill-38" d="M39.2557512,52.6759245 L40.9866159,51.4809042 L41.4172552,52.0870244 L41.3439899,52.1375223 C41.1780509,51.9683725 41.0477061,51.8735527 40.9531703,51.8531355 C40.8585629,51.8327911 40.7225602,51.8838702 40.545234,52.0063004 L40.374783,52.1239351 L41.6220828,53.9833481 C41.715974,54.1233617 41.7926053,54.1973284 41.8519767,54.2054662 C41.911348,54.2135314 42.0068149,54.1798177 42.1385204,54.1043978 L42.1837114,54.1718978 L41.2913507,54.7878997 L41.2461597,54.7205449 C41.3677671,54.6193311 41.4315072,54.5383165 41.4373798,54.4774284 C41.4431809,54.4165402 41.3936212,54.3078426 41.2885576,54.1513354 L40.069905,52.3345005 L39.8980218,52.4531524 C39.7286451,52.5701332 39.6327485,52.6787582 39.6103321,52.7789548 C39.5879156,52.8792967 39.626661,53.037693 39.7267114,53.2541437 L39.6520138,53.3057315 L39.2557512,52.6759245 Z"></path><path fill="#1334CD" id="Fill-40" d="M42.7874873,53.6558964 C42.889543,53.5503231 42.9410363,53.4685092 42.9418958,53.4106001 C42.9427552,53.3526183 42.8852459,53.2494427 42.7693679,53.1010007 L41.6042141,51.6088782 C41.5078878,51.4855762 41.4293944,51.4180761 41.3688772,51.4065233 C41.3082883,51.3949706 41.2211292,51.4275944 41.1073997,51.5044675 L41.057482,51.4405277 L41.8623971,50.7935005 L41.9123865,50.8574403 C41.8131955,50.9517515 41.7620602,51.0302231 41.7590523,51.0929277 C41.7559727,51.1556323 41.8026676,51.2486356 41.8989939,51.3719377 L42.4230947,52.0432329 L43.3045695,51.3347364 L42.7803971,50.6634411 C42.6841424,50.540139 42.6059355,50.4724936 42.545848,50.4605049 C42.4857605,50.4485889 42.3983865,50.4814307 42.2836544,50.5590303 L42.2337366,50.4950905 L43.0386517,49.848136 L43.0886411,49.9120758 C42.9888772,50.006823 42.9375987,50.0854399 42.9348772,50.1479265 C42.9320841,50.2103405 42.9788507,50.3031985 43.0752485,50.4265732 L44.2719143,51.9590213 C44.3694581,52.0839945 44.4477366,52.1512767 44.5068215,52.1610129 C44.5659064,52.1706766 44.6532088,52.1381981 44.7687286,52.0635774 L44.8185748,52.1274445 L44.0136597,52.7743991 L43.9637419,52.7105319 C44.0675881,52.6052492 44.1195111,52.5235807 44.1195111,52.4654536 C44.1195111,52.4073265 44.0615005,52.3040782 43.9455509,52.1556362 L43.4228109,51.4860848 L42.5412645,52.1945813 L43.0956597,52.9044584 C43.1932034,53.029359 43.2718401,53.0968591 43.3317127,53.1068134 C43.3915138,53.1169129 43.4783865,53.0842891 43.5924024,53.0089419 L43.6423918,53.0728817 L42.837405,53.7198362 L42.7874873,53.6558964 Z"></path></g><path fill-rule="nonzero" fill="#0054B4" id="WOODLANDS" d="M68.4960938,39 L70.8046875,30.0234375 C70.90625,29.625 71.0507812,28.9589844 71.2382812,28.0253906 C71.4257812,27.0917969 71.5429688,26.4140625 71.5898438,25.9921875 C71.6210938,26.3359375 71.7402344,27.0097656 71.9472656,28.0136719 L71.997762,28.2575277 C72.1782905,29.1255561 72.3079427,29.7063802 72.3867188,30 L72.3867188,30 L74.7070312,39 L78.84375,39 L83.203125,21.8671875 L79.6289062,21.8671875 L77.4492188,31.21875 C77.3085938,31.78125 77.1523438,32.5175781 76.9804688,33.4277344 C76.8085938,34.3378906 76.6835938,35.0976562 76.6054688,35.7070312 C76.5195312,35.0742188 76.3945312,34.3164062 76.2304688,33.4335938 C76.0664062,32.5507812 75.9296875,31.8945312 75.8203125,31.4648438 L75.8203125,31.4648438 L73.3242188,21.8671875 L69.890625,21.8671875 L67.3945312,31.4648438 C67.2460938,31.9804688 67.0878906,32.7050781 66.9199219,33.6386719 C66.7519531,34.5722656 66.6445312,35.2617188 66.5976562,35.7070312 C66.4257812,34.4414062 66.1484375,32.9453125 65.765625,31.21875 L65.765625,31.21875 L63.5742188,21.8671875 L60,21.8671875 L64.3710938,39 L68.4960938,39 Z M92.7539062,39.234375 C95.3789062,39.234375 97.3945312,38.4726562 98.8007812,36.9492188 C100.207031,35.4257812 100.910156,33.2460938 100.910156,30.4101562 C100.910156,27.5664062 100.212891,25.3867188 98.8183594,23.8710938 C97.4238281,22.3554688 95.4101562,21.5976562 92.7773438,21.5976562 C90.1445312,21.5976562 88.1230469,22.3496094 86.7128906,23.8535156 C85.3027344,25.3574219 84.5976562,27.5351562 84.5976562,30.3867188 C84.5976562,33.2382812 85.3007812,35.4257812 86.7070312,36.9492188 C88.1132812,38.4726562 90.1289062,39.234375 92.7539062,39.234375 Z M92.7539062,36.1875 C91.3085938,36.1875 90.2226562,35.703125 89.4960938,34.734375 C88.7695312,33.765625 88.40625,32.3242188 88.40625,30.4101562 C88.40625,28.4960938 88.7734375,27.0527344 89.5078125,26.0800781 C90.2421875,25.1074219 91.3320312,24.6210938 92.7773438,24.6210938 C95.6601562,24.6210938 97.1015625,26.5507812 97.1015625,30.4101562 C97.1015625,34.2617188 95.6523438,36.1875 92.7539062,36.1875 Z M111.855469,39.234375 C114.480469,39.234375 116.496094,38.4726562 117.902344,36.9492188 C119.308594,35.4257812 120.011719,33.2460938 120.011719,30.4101562 C120.011719,27.5664062 119.314453,25.3867188 117.919922,23.8710938 C116.525391,22.3554688 114.511719,21.5976562 111.878906,21.5976562 C109.246094,21.5976562 107.224609,22.3496094 105.814453,23.8535156 C104.404297,25.3574219 103.699219,27.5351562 103.699219,30.3867188 C103.699219,33.2382812 104.402344,35.4257812 105.808594,36.9492188 C107.214844,38.4726562 109.230469,39.234375 111.855469,39.234375 Z M111.855469,36.1875 C110.410156,36.1875 109.324219,35.703125 108.597656,34.734375 C107.871094,33.765625 107.507812,32.3242188 107.507812,30.4101562 C107.507812,28.4960938 107.875,27.0527344 108.609375,26.0800781 C109.34375,25.1074219 110.433594,24.6210938 111.878906,24.6210938 C114.761719,24.6210938 116.203125,26.5507812 116.203125,30.4101562 C116.203125,34.2617188 114.753906,36.1875 111.855469,36.1875 Z M128.414062,39 C131.445312,39 133.763672,38.25 135.369141,36.75 C136.974609,35.25 137.777344,33.0898438 137.777344,30.2695312 C137.777344,27.6210938 137.003906,25.5585938 135.457031,24.0820312 C133.910156,22.6054688 131.738281,21.8671875 128.941406,21.8671875 L128.941406,21.8671875 L123.5625,21.8671875 L123.5625,39 L128.414062,39 Z M128.753906,36 L127.195312,36 L127.195312,24.84375 L129.128906,24.84375 C132.378906,24.84375 134.003906,26.6835938 134.003906,30.3632812 C134.003906,34.1210938 132.253906,36 128.753906,36 L128.753906,36 Z M151.910156,39 L151.910156,36 L144.960938,36 L144.960938,21.8671875 L141.328125,21.8671875 L141.328125,39 L151.910156,39 Z M156.644531,39 L157.886719,34.921875 L164.132812,34.921875 L165.375,39 L169.289062,39 L163.21875,21.796875 L158.777344,21.796875 L152.730469,39 L156.644531,39 Z M163.265625,31.875 L158.800781,31.875 C160.019531,27.9296875 160.757812,25.4570312 161.015625,24.4570312 C161.078125,24.7382812 161.181641,25.1210938 161.326172,25.6054688 C161.470703,26.0898438 162.117188,28.1796875 163.265625,31.875 L163.265625,31.875 Z M174.691406,39 L174.691406,30.9375 C174.691406,29.9609375 174.617188,28.328125 174.46875,26.0390625 L174.46875,26.0390625 L174.574219,26.0390625 L182.027344,39 L186.644531,39 L186.644531,21.8671875 L183.375,21.8671875 L183.375608,30.1460181 C183.382096,31.085897 183.440487,32.6036305 183.550781,34.6992188 L183.550781,34.6992188 L183.46875,34.6992188 L176.027344,21.8671875 L171.445312,21.8671875 L171.445312,39 L174.691406,39 Z M195.808594,39 C198.839844,39 201.158203,38.25 202.763672,36.75 C204.369141,35.25 205.171875,33.0898438 205.171875,30.2695312 C205.171875,27.6210938 204.398438,25.5585938 202.851562,24.0820312 C201.304688,22.6054688 199.132812,21.8671875 196.335938,21.8671875 L196.335938,21.8671875 L190.957031,21.8671875 L190.957031,39 L195.808594,39 Z M196.148438,36 L194.589844,36 L194.589844,24.84375 L196.523438,24.84375 C199.773438,24.84375 201.398438,26.6835938 201.398438,30.3632812 C201.398438,34.1210938 199.648438,36 196.148438,36 L196.148438,36 Z M212.519531,39.234375 C214.503906,39.234375 216.052734,38.7890625 217.166016,37.8984375 C218.279297,37.0078125 218.835938,35.7890625 218.835938,34.2421875 C218.835938,33.125 218.539062,32.1816406 217.945312,31.4121094 C217.351562,30.6425781 216.253906,29.875 214.652344,29.109375 C213.441406,28.53125 212.673828,28.1308594 212.349609,27.9082031 C212.025391,27.6855469 211.789062,27.4550781 211.640625,27.2167969 C211.492188,26.9785156 211.417969,26.6992188 211.417969,26.3789062 C211.417969,25.8632812 211.601562,25.4453125 211.96875,25.125 C212.335938,24.8046875 212.863281,24.6445312 213.550781,24.6445312 C214.128906,24.6445312 214.716797,24.71875 215.314453,24.8671875 C215.912109,25.015625 216.667969,25.2773438 217.582031,25.6523438 L217.582031,25.6523438 L218.753906,22.828125 C217.871094,22.4453125 217.025391,22.1484375 216.216797,21.9375 C215.408203,21.7265625 214.558594,21.6210938 213.667969,21.6210938 C211.855469,21.6210938 210.435547,22.0546875 209.408203,22.921875 C208.380859,23.7890625 207.867188,24.9804688 207.867188,26.4960938 C207.867188,27.3007812 208.023438,28.0039062 208.335938,28.6054688 C208.648438,29.2070312 209.066406,29.734375 209.589844,30.1875 C210.113281,30.640625 210.898438,31.1132812 211.945312,31.6054688 C213.0625,32.1367188 213.802734,32.5234375 214.166016,32.765625 C214.529297,33.0078125 214.804688,33.2597656 214.992188,33.5214844 C215.179688,33.7832031 215.273438,34.0820312 215.273438,34.4179688 C215.273438,35.0195312 215.060547,35.4726562 214.634766,35.7773438 C214.208984,36.0820312 213.597656,36.234375 212.800781,36.234375 C212.136719,36.234375 211.404297,36.1289062 210.603516,35.9179688 C209.802734,35.7070312 208.824219,35.34375 207.667969,34.828125 L207.667969,34.828125 L207.667969,38.203125 C209.074219,38.890625 210.691406,39.234375 212.519531,39.234375 Z"></path><path fill-rule="nonzero" fill="#0054B4" id="SECONDARYSCHOOL" d="M63.953125,58.15625 C65.203125,58.15625 66.1927083,57.875 66.921875,57.3125 C67.6510417,56.75 68.015625,55.9661458 68.015625,54.9609375 C68.015625,54.1796875 67.7903646,53.5442708 67.3398438,53.0546875 C66.8893229,52.5651042 66.0651042,52.1067708 64.8671875,51.6796875 C64.1536458,51.4244792 63.6236979,51.1914062 63.2773438,50.9804688 C62.9309896,50.7695312 62.6848958,50.5377604 62.5390625,50.2851562 C62.3932292,50.0325521 62.3203125,49.7083333 62.3203125,49.3125 C62.3203125,48.7760417 62.5182292,48.3567708 62.9140625,48.0546875 C63.3098958,47.7526042 63.859375,47.6015625 64.5625,47.6015625 C65.453125,47.6015625 66.3697917,47.7994792 67.3125,48.1953125 L67.3125,48.1953125 L67.7265625,47.0390625 C66.7734375,46.6223958 65.7291667,46.4140625 64.59375,46.4140625 C63.5052083,46.4140625 62.6302083,46.6744792 61.96875,47.1953125 C61.3072917,47.7161458 60.9765625,48.4166667 60.9765625,49.296875 C60.9765625,50.1354167 61.2044271,50.8151042 61.6601562,51.3359375 C62.1158854,51.8567708 62.875,52.3072917 63.9375,52.6875 C64.6979167,52.9583333 65.2643229,53.2005208 65.6367188,53.4140625 C66.0091146,53.6276042 66.2747396,53.8606771 66.4335938,54.1132812 C66.5924479,54.3658854 66.671875,54.6901042 66.671875,55.0859375 C66.671875,55.6848958 66.4479167,56.1523438 66,56.4882812 C65.5520833,56.8242188 64.8854167,56.9921875 64,56.9921875 C63.4583333,56.9921875 62.9114583,56.9348958 62.359375,56.8203125 C61.8072917,56.7057292 61.296875,56.5494792 60.828125,56.3515625 L60.828125,56.3515625 L60.828125,57.6328125 C61.5572917,57.9817708 62.5989583,58.15625 63.953125,58.15625 Z M76.8578804,58 L76.8578804,56.8125 L71.8188179,56.8125 L71.8188179,52.609375 L76.5531929,52.609375 L76.5531929,51.4375 L71.8188179,51.4375 L71.8188179,47.7578125 L76.8578804,47.7578125 L76.8578804,46.578125 L70.4906929,46.578125 L70.4906929,58 L76.8578804,58 Z M84.2001359,58.15625 C85.3615942,58.15625 86.3381567,58.0078125 87.1298234,57.7109375 L87.1298234,57.7109375 L87.1298234,56.546875 C86.10899,56.8333333 85.2001359,56.9765625 84.4032609,56.9765625 C83.1063859,56.9765625 82.107688,56.5690104 81.4071671,55.7539062 C80.7066463,54.9388021 80.3563859,53.7838542 80.3563859,52.2890625 C80.3563859,50.8359375 80.7196671,49.6914062 81.4462296,48.8554688 C82.1727921,48.0195312 83.1636775,47.6015625 84.4188859,47.6015625 C85.2834692,47.6015625 86.1480525,47.8046875 87.0126359,48.2109375 L87.0126359,48.2109375 L87.5751359,47.0703125 C86.6793025,46.6328125 85.6324275,46.4140625 84.4345109,46.4140625 C83.3095109,46.4140625 82.3316463,46.6536458 81.5009171,47.1328125 C80.670188,47.6119792 80.0347713,48.2942708 79.5946671,49.1796875 C79.154563,50.0651042 78.9345109,51.0963542 78.9345109,52.2734375 C78.9345109,54.1536458 79.3915421,55.6041667 80.3056046,56.625 C81.2196671,57.6458333 82.5178442,58.15625 84.2001359,58.15625 Z M94.1127038,58.15625 C95.7585371,58.15625 97.0436934,57.6328125 97.9681726,56.5859375 C98.8926517,55.5390625 99.3548913,54.1015625 99.3548913,52.2734375 C99.3548913,50.4401042 98.8939538,49.0026042 97.9720788,47.9609375 C97.0502038,46.9192708 95.7689538,46.3984375 94.1283288,46.3984375 C92.4408288,46.3984375 91.1387455,46.9101562 90.2220788,47.9335938 C89.3054121,48.9570312 88.8470788,50.3984375 88.8470788,52.2578125 C88.8470788,54.1328125 89.3041101,55.5846354 90.2181726,56.6132812 C91.1322351,57.6419271 92.4304121,58.15625 94.1127038,58.15625 Z M94.1127038,56.9921875 C92.8574955,56.9921875 91.9004642,56.5924479 91.2416101,55.7929688 C90.5827559,54.9934896 90.2533288,53.8203125 90.2533288,52.2734375 C90.2533288,50.7473958 90.5827559,49.5846354 91.2416101,48.7851562 C91.9004642,47.9856771 92.8627038,47.5859375 94.1283288,47.5859375 C95.3887455,47.5859375 96.3405684,47.9830729 96.9837976,48.7773438 C97.6270267,49.5716146 97.9486413,50.7369792 97.9486413,52.2734375 C97.9486413,53.8255208 97.6257246,55 96.9798913,55.796875 C96.334058,56.59375 95.3783288,56.9921875 94.1127038,56.9921875 Z M103.267459,58 L103.267459,51.5078125 C103.267459,50.5703125 103.225793,49.5390625 103.142459,48.4140625 L103.142459,48.4140625 L103.204959,48.4140625 L109.447147,58 L110.962772,58 L110.962772,46.578125 L109.720584,46.578125 L109.720584,53.1328125 C109.719427,53.1692708 109.718559,53.2084137 109.71798,53.2502411 L109.71798,53.5334201 C109.721452,53.8488137 109.735341,54.2608507 109.759647,54.7695312 C109.796105,55.5325521 109.819543,55.984375 109.829959,56.125 L109.829959,56.125 L109.767459,56.125 L103.540897,46.578125 L102.040897,46.578125 L102.040897,58 L103.267459,58 Z M117.40659,58 C119.328465,58 120.801121,57.5013021 121.824558,56.5039062 C122.847996,55.5065104 123.359715,54.0651042 123.359715,52.1796875 C123.359715,50.4140625 122.867527,49.0390625 121.883152,48.0546875 C120.898777,47.0703125 119.518569,46.578125 117.742527,46.578125 L117.742527,46.578125 L114.242527,46.578125 L114.242527,58 L117.40659,58 Z M117.18784,56.8515625 L115.570652,56.8515625 L115.570652,47.7265625 L117.50034,47.7265625 C118.974298,47.7265625 120.084975,48.1041667 120.832371,48.859375 C121.579767,49.6145833 121.953465,50.7369792 121.953465,52.2265625 C121.953465,53.7526042 121.555027,54.9049479 120.758152,55.6835938 C119.961277,56.4622396 118.771173,56.8515625 117.18784,56.8515625 L117.18784,56.8515625 Z M125.498845,58 L126.905095,54.3671875 L131.48322,54.3671875 L132.905095,58 L134.280095,58 L129.787908,46.53125 L128.67072,46.53125 L124.155095,58 L125.498845,58 Z M131.069158,53.171875 L127.373845,53.171875 L128.717595,49.6328125 C128.931137,49.0338542 129.095199,48.484375 129.209783,47.984375 C129.392074,48.6354167 129.569158,49.1848958 129.741033,49.6328125 L129.741033,49.6328125 L131.069158,53.171875 Z M137.317663,58 L137.317663,53.25 L139.700476,53.25 L142.466101,58 L144.036413,58 L140.934851,52.8671875 C142.466101,52.3359375 143.231726,51.3151042 143.231726,49.8046875 C143.231726,48.7265625 142.89709,47.9192708 142.227819,47.3828125 C141.558548,46.8463542 140.523392,46.578125 139.122351,46.578125 L139.122351,46.578125 L135.989538,46.578125 L135.989538,58 L137.317663,58 Z M139.137976,52.109375 L137.317663,52.109375 L137.317663,47.7421875 L139.044226,47.7421875 C140.028601,47.7421875 140.743444,47.9088542 141.188757,48.2421875 C141.634069,48.5755208 141.856726,49.1197917 141.856726,49.875 C141.856726,50.6197917 141.637976,51.1783854 141.200476,51.5507812 C140.762976,51.9231771 140.075476,52.109375 139.137976,52.109375 L139.137976,52.109375 Z M149.597418,58 L149.597418,53.5703125 L153.409918,46.578125 L151.972418,46.578125 L148.925543,52.2890625 L145.902106,46.578125 L144.448981,46.578125 L148.253668,53.6328125 L148.253668,58 L149.597418,58 Z M166.092935,58.15625 C167.342935,58.15625 168.332518,57.875 169.061685,57.3125 C169.790851,56.75 170.155435,55.9661458 170.155435,54.9609375 C170.155435,54.1796875 169.930174,53.5442708 169.479654,53.0546875 C169.029133,52.5651042 168.204914,52.1067708 167.006997,51.6796875 C166.293456,51.4244792 165.763508,51.1914062 165.417154,50.9804688 C165.070799,50.7695312 164.824706,50.5377604 164.678872,50.2851562 C164.533039,50.0325521 164.460122,49.7083333 164.460122,49.3125 C164.460122,48.7760417 164.658039,48.3567708 165.053872,48.0546875 C165.449706,47.7526042 165.999185,47.6015625 166.70231,47.6015625 C167.592935,47.6015625 168.509601,47.7994792 169.45231,48.1953125 L169.45231,48.1953125 L169.866372,47.0390625 C168.913247,46.6223958 167.868976,46.4140625 166.73356,46.4140625 C165.645018,46.4140625 164.770018,46.6744792 164.10856,47.1953125 C163.447101,47.7161458 163.116372,48.4166667 163.116372,49.296875 C163.116372,50.1354167 163.344237,50.8151042 163.799966,51.3359375 C164.255695,51.8567708 165.01481,52.3072917 166.07731,52.6875 C166.837726,52.9583333 167.404133,53.2005208 167.776529,53.4140625 C168.148924,53.6276042 168.414549,53.8606771 168.573404,54.1132812 C168.732258,54.3658854 168.811685,54.6901042 168.811685,55.0859375 C168.811685,55.6848958 168.587726,56.1523438 168.13981,56.4882812 C167.691893,56.8242188 167.025226,56.9921875 166.13981,56.9921875 C165.598143,56.9921875 165.051268,56.9348958 164.499185,56.8203125 C163.947101,56.7057292 163.436685,56.5494792 162.967935,56.3515625 L162.967935,56.3515625 L162.967935,57.6328125 C163.697101,57.9817708 164.738768,58.15625 166.092935,58.15625 Z M177.302378,58.15625 C178.463836,58.15625 179.440399,58.0078125 180.232065,57.7109375 L180.232065,57.7109375 L180.232065,56.546875 C179.211232,56.8333333 178.302378,56.9765625 177.505503,56.9765625 C176.208628,56.9765625 175.20993,56.5690104 174.509409,55.7539062 C173.808888,54.9388021 173.458628,53.7838542 173.458628,52.2890625 C173.458628,50.8359375 173.821909,49.6914062 174.548471,48.8554688 C175.275034,48.0195312 176.265919,47.6015625 177.521128,47.6015625 C178.385711,47.6015625 179.250294,47.8046875 180.114878,48.2109375 L180.114878,48.2109375 L180.677378,47.0703125 C179.781544,46.6328125 178.734669,46.4140625 177.536753,46.4140625 C176.411753,46.4140625 175.433888,46.6536458 174.603159,47.1328125 C173.77243,47.6119792 173.137013,48.2942708 172.696909,49.1796875 C172.256805,50.0651042 172.036753,51.0963542 172.036753,52.2734375 C172.036753,54.1536458 172.493784,55.6041667 173.407846,56.625 C174.321909,57.6458333 175.620086,58.15625 177.302378,58.15625 Z M184.191508,58 L184.191508,52.625 L190.207133,52.625 L190.207133,58 L191.535258,58 L191.535258,46.578125 L190.207133,46.578125 L190.207133,51.4375 L184.191508,51.4375 L184.191508,46.578125 L182.863383,46.578125 L182.863383,58 L184.191508,58 Z M199.479076,58.15625 C201.124909,58.15625 202.410066,57.6328125 203.334545,56.5859375 C204.259024,55.5390625 204.721264,54.1015625 204.721264,52.2734375 C204.721264,50.4401042 204.260326,49.0026042 203.338451,47.9609375 C202.416576,46.9192708 201.135326,46.3984375 199.494701,46.3984375 C197.807201,46.3984375 196.505118,46.9101562 195.588451,47.9335938 C194.671784,48.9570312 194.213451,50.3984375 194.213451,52.2578125 C194.213451,54.1328125 194.670482,55.5846354 195.584545,56.6132812 C196.498607,57.6419271 197.796784,58.15625 199.479076,58.15625 Z M199.479076,56.9921875 C198.223868,56.9921875 197.266837,56.5924479 196.607982,55.7929688 C195.949128,54.9934896 195.619701,53.8203125 195.619701,52.2734375 C195.619701,50.7473958 195.949128,49.5846354 196.607982,48.7851562 C197.266837,47.9856771 198.229076,47.5859375 199.494701,47.5859375 C200.755118,47.5859375 201.706941,47.9830729 202.35017,48.7773438 C202.993399,49.5716146 203.315014,50.7369792 203.315014,52.2734375 C203.315014,53.8255208 202.992097,55 202.346264,55.796875 C201.70043,56.59375 200.744701,56.9921875 199.479076,56.9921875 Z M212.079144,58.15625 C213.724977,58.15625 215.010134,57.6328125 215.934613,56.5859375 C216.859092,55.5390625 217.321332,54.1015625 217.321332,52.2734375 C217.321332,50.4401042 216.860394,49.0026042 215.938519,47.9609375 C215.016644,46.9192708 213.735394,46.3984375 212.094769,46.3984375 C210.407269,46.3984375 209.105186,46.9101562 208.188519,47.9335938 C207.271852,48.9570312 206.813519,50.3984375 206.813519,52.2578125 C206.813519,54.1328125 207.27055,55.5846354 208.184613,56.6132812 C209.098675,57.6419271 210.396852,58.15625 212.079144,58.15625 Z M212.079144,56.9921875 C210.823936,56.9921875 209.866904,56.5924479 209.20805,55.7929688 C208.549196,54.9934896 208.219769,53.8203125 208.219769,52.2734375 C208.219769,50.7473958 208.549196,49.5846354 209.20805,48.7851562 C209.866904,47.9856771 210.829144,47.5859375 212.094769,47.5859375 C213.355186,47.5859375 214.307009,47.9830729 214.950238,48.7773438 C215.593467,49.5716146 215.915082,50.7369792 215.915082,52.2734375 C215.915082,53.8255208 215.592165,55 214.946332,55.796875 C214.300498,56.59375 213.344769,56.9921875 212.079144,56.9921875 Z M226.374524,58 L226.374524,56.796875 L221.335462,56.796875 L221.335462,46.578125 L220.007337,46.578125 L220.007337,58 L226.374524,58 Z"></path></g></svg> 